<svg xmlns="http://www.w3.org/2000/svg" xmlns:xlink="http://www.w3.org/1999/xlink" width="100" zoomAndPan="magnify" viewBox="0 0 75 30.000001" height="40" preserveAspectRatio="xMidYMid meet" version="1.0"><defs><g/></defs><g fill="#ffffff" fill-opacity="1"><g transform="translate(19.900326, 27.774183)"><g><path d="M 8.585938 -5.378906 L 8.585938 -1.546875 L 6.5625 -1.53125 C 5.90625 -1.53125 5.34375 -1.628906 4.882812 -1.792969 C 4.425781 -1.972656 4.03125 -2.253906 3.667969 -2.632812 C 2.945312 -3.4375 2.550781 -4.34375 2.484375 -5.363281 L 0.824219 -5.363281 C 0.90625 -3.78125 1.398438 -2.515625 2.320312 -1.5625 C 3.339844 -0.542969 4.703125 -0.015625 6.445312 -0.015625 L 10.164062 -0.03125 L 10.164062 -5.378906 Z M 6.464844 -11.578125 C 4.738281 -11.578125 3.355469 -11.050781 2.320312 -10 C 1.546875 -9.210938 1.070312 -8.191406 0.886719 -6.941406 L 2.613281 -6.941406 C 2.8125 -7.664062 3.207031 -8.355469 3.800781 -9.011719 C 4.195312 -9.359375 4.605469 -9.605469 5.03125 -9.785156 C 5.460938 -9.984375 5.988281 -10.066406 6.59375 -10.066406 L 10.164062 -10.03125 L 10.164062 -11.5625 Z M 6.464844 -11.578125 "/></g></g></g><g fill="#1d75d3" fill-opacity="1"><g transform="translate(30.878149, 27.774183)"><g><path d="M 2.449219 -4.257812 L 0.824219 0 L 2.46875 0 L 3.519531 -2.960938 L 8.734375 -2.960938 L 9.785156 0 L 11.414062 0 L 9.785156 -4.257812 Z M 5.230469 -11.546875 L 2.960938 -5.59375 L 4.488281 -5.59375 L 6.117188 -10.015625 L 7.746094 -5.59375 L 9.277344 -5.59375 L 7.007812 -11.546875 Z M 5.230469 -11.546875 "/></g></g></g><g fill="#1d75d3" fill-opacity="1"><g transform="translate(43.112499, 27.774183)"><g><path d="M 8.898438 -11.578125 L 7.15625 -6.925781 L 8.652344 -6.925781 L 9.867188 -10.164062 L 9.867188 -0.015625 L 11.398438 -0.015625 L 11.398438 -11.578125 Z M 0.824219 -11.578125 L 0.824219 -0.015625 L 2.335938 -0.015625 L 2.335938 -10.164062 L 3.550781 -6.925781 L 5.066406 -6.925781 L 3.320312 -11.578125 Z M 4.144531 -5.34375 L 5.3125 -2.597656 L 6.890625 -2.597656 L 8.058594 -5.34375 L 6.5625 -5.34375 L 6.101562 -4.292969 L 5.65625 -5.34375 Z M 4.144531 -5.34375 "/></g></g></g><g fill="#ffffff" fill-opacity="1"><g transform="translate(55.306072, 27.774183)"><g><path d="M 0.824219 -11.5625 L 0.824219 -2.894531 L 2.386719 -2.894531 L 2.386719 -5.507812 L 8.125 -5.492188 L 8.125 -6.824219 L 2.386719 -6.824219 L 2.386719 -10.246094 L 8.125 -10.246094 L 8.125 -11.5625 Z M 0.824219 -1.316406 L 0.824219 0 L 8.125 0 L 8.125 -1.316406 Z M 0.824219 -1.316406 "/></g></g></g><g fill="#ffffff" fill-opacity="1"><g transform="translate(64.251623, 27.774183)"><g><path d="M 0.824219 -11.5625 L 0.824219 -4.65625 L 4.308594 -4.65625 L 6.464844 -0.015625 L 8.207031 -0.015625 L 5.953125 -4.835938 C 6.496094 -5 6.941406 -5.230469 7.285156 -5.527344 C 7.960938 -6.117188 8.289062 -6.972656 8.289062 -8.109375 C 8.289062 -9.242188 7.960938 -10.097656 7.285156 -10.675781 C 6.628906 -11.265625 5.65625 -11.5625 4.359375 -11.5625 Z M 2.386719 -10.179688 L 4.359375 -10.179688 C 5.082031 -10.179688 5.640625 -10.015625 6.035156 -9.621094 C 6.429688 -9.242188 6.628906 -8.734375 6.628906 -8.109375 C 6.628906 -7.484375 6.429688 -7.007812 6.035156 -6.613281 C 5.640625 -6.234375 5.082031 -6.035156 4.359375 -6.035156 L 2.386719 -6.035156 Z M 0.824219 -3.074219 L 0.824219 0 L 2.386719 0 L 2.386719 -3.074219 Z M 0.824219 -3.074219 "/></g></g></g><g fill="#ffffff" fill-opacity="1"><g transform="translate(8.208038, 13.944238)"><g><path d="M 0.96875 -6.25 L 0.96875 0 L 2.824219 0 L 2.824219 -6.25 Z M 0.96875 -13.5625 L 0.96875 -8.089844 L 2.824219 -8.089844 L 2.824219 -13.5625 Z M 0.96875 -13.5625 "/></g></g></g><g fill="#1d75d3" fill-opacity="1"><g transform="translate(11.973159, 13.944238)"><g><path d="M 8.050781 -10.179688 L 0.96875 -1.414062 L 0.96875 0 L 12.074219 0 L 12.074219 -1.546875 L 3.269531 -1.546875 L 10.234375 -10.179688 Z M 1.179688 -13.601562 L 1.179688 -12.054688 C 4.003906 -12.074219 7.566406 -12.074219 11.863281 -12.074219 L 11.863281 -13.601562 Z M 1.179688 -13.601562 "/></g></g></g><g fill="#1d75d3" fill-opacity="1"><g transform="translate(24.993829, 13.944238)"><g><path d="M 8.050781 -10.179688 L 0.96875 -1.414062 L 0.96875 0 L 12.074219 0 L 12.074219 -1.546875 L 3.269531 -1.546875 L 10.234375 -10.179688 Z M 1.179688 -13.601562 L 1.179688 -12.054688 C 4.003906 -12.074219 7.566406 -12.074219 11.863281 -12.074219 L 11.863281 -13.601562 Z M 1.179688 -13.601562 "/></g></g></g><g fill="#ffffff" fill-opacity="1"><g transform="translate(38.011465, 13.944238)"><g><path d="M 0.96875 -13.582031 L 5.765625 -6.480469 L 7.625 -6.480469 L 12.421875 -13.582031 L 10.449219 -13.582031 L 6.714844 -7.992188 L 2.941406 -13.582031 Z M 5.765625 -4.625 L 5.765625 0 L 7.625 0 L 7.625 -4.625 Z M 5.765625 -4.625 "/></g></g></g></svg>